<svg width="26" height="21" viewBox="0 0 26 21" fill="none" xmlns="http://www.w3.org/2000/svg">
  <path fill-rule="evenodd" clip-rule="evenodd" d="M5.85091 0.00303503C6.13073 0.0082118 10.3434 0.355055 15.2124 0.774373C20.0813 1.18851 24.2126 1.55607 24.3957 1.58713C24.5789 1.62336 24.8333 1.70619 24.9707 1.77349C25.1029 1.84079 25.3115 2.00127 25.4387 2.13069C25.5659 2.26011 25.7338 2.50859 25.8203 2.68978C25.9017 2.86579 25.9831 3.14016 25.9984 3.29546C26.0187 3.47147 25.8458 5.81137 25.5456 9.50758C25.2759 12.7689 25.0317 15.5385 25.0012 15.6679C24.9707 15.7973 24.8842 16.0148 24.8129 16.1545C24.7366 16.2943 24.5484 16.5221 24.3957 16.6619C24.2431 16.8016 23.9887 16.9673 23.8361 17.0294C23.6021 17.1226 23.4545 17.1433 22.3199 17.1433L22.2996 18.2822C22.2792 19.3124 22.2691 19.447 22.1673 19.7058C22.1012 19.8611 21.974 20.0941 21.8773 20.2235C21.7756 20.3529 21.5873 20.5341 21.455 20.6221C21.3227 20.7153 21.0887 20.8395 20.9361 20.8965C20.6613 21 20.5494 21 1.55176 21L1.18036 20.824C0.981935 20.7308 0.712285 20.56 0.590179 20.4513C0.452809 20.3218 0.300177 20.1096 0 19.478V6.84154L0.127194 6.55682C0.20351 6.40152 0.325616 6.18409 0.40702 6.07538C0.493511 5.96667 0.671583 5.80101 0.814039 5.70266C0.951409 5.6043 1.17018 5.48523 1.29738 5.43864C1.47036 5.37134 1.76545 5.34028 3.40879 5.28851L3.59195 3.5543C3.68862 2.60177 3.79037 1.71654 3.81072 1.58713C3.83107 1.45771 3.92265 1.2144 4.00914 1.04874C4.10072 0.883085 4.28388 0.634601 4.42634 0.505181C4.57388 0.365409 4.8181 0.204929 5.01143 0.127277C5.30652 0.00303503 5.3981 -0.0073185 5.85091 0.00303503ZM4.98599 1.38523C4.92494 1.48359 4.8588 1.60783 4.83845 1.66478C4.8181 1.72172 4.72143 2.51377 4.62476 3.42488C4.52809 4.33599 4.45178 5.13321 4.45178 5.20051V5.3144L20.758 5.34028C21.2871 5.55771 21.4601 5.68195 21.7043 5.93043C21.9485 6.17892 22.0706 6.35493 22.1622 6.58271L22.2843 6.89331L22.3098 16.0821C23.1543 16.139 23.2917 16.1287 23.4545 16.0562C23.5664 16.0096 23.6987 15.9319 23.7547 15.8854C23.8056 15.8388 23.887 15.7145 23.9378 15.6162C24.0142 15.466 24.1108 14.4566 24.5229 9.45581C24.7977 6.08574 24.9961 3.39899 24.9808 3.29546C24.9554 3.18157 24.8689 3.03662 24.7315 2.90202C24.6094 2.77261 24.4415 2.66389 24.3194 2.62766C24.2075 2.5966 19.9592 2.22387 14.8817 1.7942C9.80409 1.36452 5.62705 1.01768 5.59652 1.01768C5.57108 1.01768 5.44389 1.06427 5.32178 1.11604C5.19459 1.17298 5.05213 1.28687 4.98599 1.38523ZM1.25667 6.67071C1.16509 6.76389 1.06843 6.92437 1.04299 7.02273C1.01246 7.12109 0.992111 7.46793 0.992111 7.78889V8.36869H21.2922C21.2922 7.50417 21.2668 7.1625 21.2363 7.04861C21.2057 6.93473 21.0938 6.75872 20.992 6.65518C20.8903 6.55164 20.7173 6.43776 20.6054 6.4067C20.4578 6.36528 17.802 6.34975 11.1167 6.34975C3.12896 6.35493 1.80106 6.36528 1.62808 6.4274C1.51615 6.46882 1.34825 6.58271 1.25667 6.67071ZM0.992111 11.5783H21.2922L21.2668 9.42993L0.992111 9.40404V11.5783ZM1.01755 19.3227C1.20071 19.6023 1.33808 19.7369 1.43983 19.8093L1.62299 19.9388C19.191 19.9646 20.4782 19.9543 20.6562 19.8922C20.7682 19.8508 20.9361 19.7317 21.0277 19.6333C21.1141 19.5298 21.2159 19.359 21.2413 19.2503C21.2719 19.1364 21.2922 17.8059 21.2922 15.8336V12.6136H0.992111L1.01755 19.3227ZM14.032 14.1615H16.6675C18.3261 14.1615 19.3436 14.1822 19.4098 14.2133C19.4657 14.2443 19.542 14.3375 19.5878 14.4203C19.6489 14.5497 19.6641 14.8707 19.6641 16.284C19.6641 17.7024 19.6489 18.0234 19.5878 18.1476C19.542 18.2356 19.4657 18.3288 19.4098 18.3547C19.3436 18.3909 18.3312 18.4064 14.0676 18.4064L13.7624 18.0958L13.742 14.4566L14.032 14.1615ZM14.7748 17.3711H18.6415V15.1968H14.7748V17.3711Z" fill="#1f2937"/>
</svg>