<svg width="25" height="25" viewBox="0 0 25 25" fill="none" xmlns="http://www.w3.org/2000/svg">
  <path d="M12.4995 1.56551C12.4995 1.56551 6.05251 1.27723 2.63445 7.73431H13.0481C13.0481 7.73431 15.0133 7.6712 16.6921 10.0468C17.1744 11.044 17.6927 12.0711 17.111 14.0954C17.949 12.6808 21.5598 6.41591 21.5598 6.41591C21.5598 6.41591 19.0129 1.82078 12.4996 1.56551H12.4995Z" fill="#EF3F36"/>
  <path d="M2.96901 17.9576C2.96901 17.9576 5.94392 23.6668 13.262 23.3845C12.3577 21.8258 8.05373 14.3986 8.05373 14.3986C8.05373 14.3986 7.01385 12.7348 8.24058 10.0979C8.86456 9.1819 9.50053 8.22385 11.55 7.71322C9.90128 7.6983 2.65248 7.71322 2.65248 7.71322C2.65248 7.71322 -0.063077 12.2092 2.96901 17.9576Z" fill="#FCD900"/>
  <path d="M21.9848 18.0026C21.9848 18.0026 25.4601 12.5816 21.5539 6.40685C20.6526 7.9656 16.3486 15.3928 16.3486 15.3928C16.3486 15.3928 15.4202 17.1227 12.5177 17.3809C11.4115 17.2999 10.2601 17.2308 8.78918 15.7201C9.6001 17.1497 13.2381 23.3966 13.2381 23.3966C13.2381 23.3966 18.5067 23.4927 21.9849 18.0026H21.9848Z" fill="#61BC5B"/>
  <path d="M13.2651 23.4386L11.8003 17.3479C11.8003 17.3479 10.1908 17.2217 8.84041 15.7471C9.6784 17.2158 13.2651 23.4386 13.2651 23.4386Z" fill="#5AB055"/>
  <path d="M17.4062 12.5696C17.4062 9.88468 15.221 7.70726 12.5265 7.70726C9.83196 7.70726 7.64672 9.88468 7.64672 12.5696C7.64672 15.2545 9.83196 17.4319 12.5265 17.4319C15.221 17.4289 17.4062 15.2545 17.4062 12.5696Z" fill="#F6F9FF"/>
  <path d="M16.5896 12.5696C16.5896 10.3352 14.7721 8.52116 12.5266 8.52116C10.2841 8.52116 8.46361 10.3322 8.46361 12.5696C8.46361 14.8041 10.2811 16.6182 12.5266 16.6182C14.7691 16.6182 16.5896 14.8041 16.5896 12.5696Z" fill="url(#paint0_linear_1_1264)"/>
  <path d="M2.65553 7.71628L8.68668 9.47924C8.68668 9.47924 9.59689 8.14871 11.553 7.71628C9.85607 7.70724 2.65553 7.71628 2.65553 7.71628Z" fill="#EACA05"/>
  <path d="M17.2285 13.8732C18.0756 12.4105 21.5598 6.41589 21.5598 6.41589L17.093 10.8188C17.093 10.8188 17.5512 11.7588 17.3793 13.1043L17.2286 13.8732H17.2285Z" fill="#DF3A32"/>
  <defs>
    <linearGradient id="paint0_linear_1_1264" x1="12.5268" y1="8.57833" x2="12.5268" y2="16.3744" gradientUnits="userSpaceOnUse">
      <stop stop-color="#86BBE5"/>
      <stop offset="1" stop-color="#1072BA"/>
    </linearGradient>
  </defs>
</svg>