<svg width="47" height="41" viewBox="0 0 47 41" fill="none" xmlns="http://www.w3.org/2000/svg">
  <path d="M17.6733 26.7172C16.8366 27.8435 16.3132 29.2422 16.3955 30.6469C16.4296 31.2287 16.5411 31.7984 16.7299 32.3559C16.7187 32.3541 16.711 32.3471 16.7069 32.3349C16.7036 32.3262 16.6973 32.319 16.6891 32.3147C16.6809 32.3103 16.6715 32.3092 16.6625 32.3113C16.6535 32.3135 16.6456 32.3189 16.6403 32.3265C16.635 32.3341 16.6326 32.3434 16.6336 32.3526C16.6393 32.3917 16.6527 32.4346 16.6739 32.4816C17.3328 33.9415 18.4185 34.8935 19.9311 35.3374C20.0446 35.371 20.1615 35.4347 20.289 35.4631C20.9488 35.6132 21.5393 35.6032 22.2348 35.4815C23.1385 35.3233 23.8938 35.0128 24.6358 34.4011C24.8307 34.24 24.9935 34.0383 25.1734 33.8476C25.3077 33.7049 25.4145 33.5623 25.4938 33.4198C25.833 32.8089 26.0707 32.2455 26.2302 31.5264C26.3548 30.9644 26.4769 30.4019 26.5965 29.8387C26.7342 29.1904 26.9838 28.4807 27.3454 27.7096C27.865 26.6002 28.5278 25.5857 29.3338 24.6662C30.0382 23.8625 30.9211 23.095 31.9823 22.3635C32.2514 22.1786 32.5606 22.0592 32.8521 21.8999C33.1709 21.7253 33.4999 21.5722 33.8391 21.4404C34.1908 21.3036 34.4129 21.0566 34.5054 20.6996C34.5101 20.6809 34.5097 20.6612 34.5043 20.6423C34.4718 20.5281 34.4932 20.4175 34.4404 20.321C34.369 20.1888 34.2382 20.1023 34.1628 20.0275C33.6346 19.503 33.0144 19.3424 32.3022 19.5455C31.4299 19.7948 30.6014 20.2458 29.8166 20.8985C29.2426 21.376 28.6891 21.8768 28.1563 22.401C28.1249 22.4314 28.0807 22.4847 28.0237 22.5609C27.9482 22.6621 27.8378 22.7196 27.7563 22.8321C27.7176 22.8852 27.6785 22.9274 27.6392 22.9587C27.4802 23.086 27.3511 23.2396 27.2521 23.4193C27.2222 23.474 27.1043 23.5516 27.0542 23.6246C26.8505 23.921 26.6433 24.215 26.4328 24.5067C26.2833 24.7134 26.1511 24.9306 26.0361 25.1583C26.0276 25.1748 26.0145 25.1863 25.9969 25.1927C25.9827 25.1974 25.9739 25.2056 25.9706 25.2173C25.9422 25.3138 25.8867 25.415 25.8041 25.5209C25.6907 25.6661 25.5894 25.8463 25.5002 26.0614C25.4669 26.1411 25.4316 26.2077 25.3943 26.2613C25.335 26.3467 25.2972 26.4095 25.2809 26.4497C25.1817 26.6981 25.0796 26.9452 24.9745 27.1908C24.8638 27.4492 24.7718 27.6996 24.6985 27.9419C24.6003 28.2664 24.5024 28.591 24.4047 28.9158C24.3814 28.9926 24.408 29.0657 24.3756 29.1378C24.3365 29.223 24.3159 29.2708 24.314 29.2812C24.2842 29.4257 24.2767 29.5785 24.2445 29.714C24.0859 30.3792 23.9677 30.9299 23.89 31.3662C23.8454 31.6163 23.7617 31.8366 23.6389 32.0271C23.6371 32.0302 23.5956 32.1063 23.5142 32.2554C23.472 32.3328 23.4101 32.4098 23.3283 32.4866C23.008 32.7858 22.6773 32.9973 22.3363 33.1209C21.263 33.5104 20.3416 33.3624 19.5721 32.6768C18.8494 32.0325 18.5023 31.1041 18.6163 30.1403C18.7148 29.3063 19.1364 28.5381 19.6963 27.9184C20.0061 27.5763 20.2887 27.3139 20.5443 27.1313C21.1116 26.7268 21.4898 26.4735 21.6787 26.3713C22.4148 25.9741 23.2256 25.5529 23.858 25.115C24.7765 24.4785 25.5444 23.7465 26.0879 22.7514C26.1628 22.6142 26.2257 22.4465 26.302 22.2952C26.3672 22.166 26.4134 22.05 26.4406 21.9474C26.5631 21.4818 26.6458 21.0092 26.6888 20.5295C26.7084 20.3081 26.6909 20.0618 26.6911 19.8281C26.691 19.625 26.6779 19.4503 26.6518 19.3042C26.6172 19.1133 26.5758 18.9239 26.5278 18.7358C26.2061 17.4798 25.8719 16.227 25.5249 14.9774C25.3951 14.5106 25.2852 14.1087 25.1953 13.7718C24.1683 9.92868 23.1406 6.08568 22.1124 2.24285C22.0336 1.94762 21.9836 1.65888 22.0577 1.40019C22.2405 0.761541 22.7309 0.434266 23.3666 0.252968C23.6307 0.178059 23.9002 0.126308 24.175 0.0977143C24.9367 0.0188523 25.6998 -0.0122749 26.4642 0.00433415C26.9435 0.0145889 27.4776 0.0709182 27.9867 0.110689C28.4253 0.145029 28.804 0.190084 29.1228 0.245853C29.909 0.382577 30.6862 0.559024 31.4545 0.775193C32.4459 1.05431 33.3905 1.44524 34.2882 1.948C34.5191 2.07702 34.7069 2.2476 34.8517 2.45974C34.9805 2.64768 35.0416 2.92956 35.1326 3.16394C35.1379 3.17771 35.1464 3.18998 35.1575 3.19973C35.1686 3.20947 35.1818 3.2164 35.1961 3.21992C35.2104 3.22344 35.2253 3.22346 35.2396 3.21996C35.2539 3.21647 35.2671 3.20956 35.2782 3.19984C35.4177 3.07756 35.6023 3.02987 35.7945 2.98917C36.7996 2.77587 37.4756 3.89731 36.6756 4.62492C36.6067 4.6881 36.5646 4.76476 36.4798 4.80698C36.1595 4.96774 35.875 5.17667 35.6264 5.43375C35.6117 5.44937 35.6075 5.46753 35.6139 5.48824C35.6195 5.50614 35.6291 5.51391 35.6427 5.51156C35.3192 5.92294 35.0196 6.35616 34.7439 6.81121C33.2468 9.28141 31.7739 11.7656 30.3251 14.2638C30.3379 14.2569 30.3355 14.2481 30.318 14.2372C30.3041 14.2285 30.2927 14.2309 30.2839 14.2445C30.1595 14.4306 29.9771 14.8466 29.6985 14.607C29.6827 14.5931 29.6722 14.5761 29.6668 14.556C28.8617 11.5168 28.0474 8.47987 27.2238 5.44522C27.1387 5.1312 27.0491 4.81664 26.9551 4.50156C26.8867 4.27105 26.8658 4.10432 26.8925 4.00138C26.9446 3.80057 27.1138 3.69704 27.4002 3.6908C28.6303 3.66285 29.8299 3.88124 30.999 4.34596C31.1449 4.33349 31.3039 4.4003 31.4762 4.54638C31.4917 4.55946 31.4935 4.57428 31.4816 4.59086C31.3999 4.70731 31.2941 4.80371 31.2258 4.91978C30.9823 5.33467 30.7361 5.7546 30.4872 6.17958C30.3372 6.06032 30.1403 5.86134 29.8965 5.58264C29.6416 5.29206 29.1336 5.14265 28.7869 5.31998C28.5758 5.42765 28.5093 5.62759 28.5873 5.9198C28.8178 6.78314 28.9861 7.44578 29.0923 7.90773C29.147 8.14665 29.2544 8.37726 29.3179 8.60286C29.4256 8.98543 29.5928 9.60761 29.8195 10.4694C29.8667 10.6489 29.9476 10.6957 30.1232 10.6556C30.5731 10.5519 30.9081 10.3156 31.1281 9.94668C31.3114 9.63985 31.4237 9.44141 31.465 9.35136C31.7824 8.66425 32.1096 7.98202 32.4467 7.30468C32.6157 6.96504 32.8035 6.63585 33.0103 6.3171C33.1634 6.08053 33.412 5.79928 33.7561 5.47336C34.1372 5.11205 34.3014 4.6652 34.2487 4.13282C34.2355 3.99962 34.1901 3.86752 34.1125 3.73652C33.9543 3.47064 33.8009 3.27223 33.6525 3.14132C33.4855 2.99384 33.2039 2.82065 32.8077 2.62175C32.0026 2.2179 31.1696 1.89361 30.3086 1.64888C29.8806 1.52714 29.4747 1.4415 29.0909 1.39199C27.8936 1.23769 26.3875 1.23825 25.366 1.94064C25.1602 2.08269 24.8924 2.38119 24.7862 2.56568C24.5788 2.92385 24.4726 3.31433 24.4677 3.73712C24.4648 3.98207 24.5316 4.3707 24.6681 4.90298C25.4183 7.82344 26.2598 10.7193 27.0032 13.6409C27.3999 15.2007 27.8176 16.7548 28.2564 18.3033C28.3476 18.6256 28.4406 18.9487 28.5352 19.2727C28.65 19.6638 28.9358 19.7804 29.3181 19.6472C29.9476 19.4281 30.5823 18.8808 30.6364 18.1706C30.671 17.7207 30.3053 17.2276 30.7216 16.8549C30.8669 16.7252 31.0373 16.7331 31.1935 16.8302C31.5254 17.0373 31.853 17.2572 32.193 17.4512C32.459 17.6022 32.774 17.8327 32.9649 17.9489C33.7075 18.4002 34.4536 18.8456 35.2032 19.2851C35.594 19.5139 35.9265 19.6764 36.2007 19.7727C36.8315 19.9939 37.4835 20.1095 38.1568 20.1196C38.1982 20.1201 38.4581 20.1043 38.9366 20.0723C39.4405 20.0386 39.8958 20.0883 40.3028 20.2213C41.1612 20.5013 41.9464 21.0095 42.6584 21.7459C43.0207 22.1204 43.2913 22.4588 43.4704 22.7609C43.6278 23.0266 43.7857 23.3814 43.9442 23.8254C44 23.9812 44.0612 24.0961 44.1278 24.1701C44.4793 24.559 45.0068 24.5834 45.358 24.1745C45.6273 23.862 45.7653 23.4444 45.676 23.0304C45.6745 23.0234 45.675 23.0161 45.6775 23.0093C45.68 23.0026 45.6843 22.9967 45.69 22.9924C45.6957 22.9881 45.7025 22.9855 45.7096 22.985C45.7168 22.9844 45.7239 22.9859 45.7302 22.9893C46.0166 23.1409 46.2094 23.3602 46.3088 23.6471C46.8307 25.1523 45.9912 26.7828 44.2698 26.7617C44.1964 26.7607 44.144 26.7694 44.1124 26.7878C44.046 26.826 44.0337 26.8886 44.0755 26.9757C44.3225 27.4904 44.4538 28.0023 44.4694 28.5114C44.4865 29.0551 44.4067 29.5832 44.2302 30.0957C43.9212 30.9928 43.442 31.7862 42.7927 32.4759C42.0547 33.2589 41.1954 33.8705 40.2146 34.3106C40.0556 34.3818 39.8987 34.4581 39.7437 34.5395C39.569 34.6305 39.4092 34.6985 39.2643 34.7435C38.4643 34.9896 37.6489 35.1653 36.8181 35.2705C36.6079 35.2973 36.4031 35.2715 36.1865 35.3951C36.1761 35.401 36.1678 35.4102 36.1631 35.4213C36.1584 35.4324 36.1574 35.4447 36.1604 35.4564C36.1804 35.533 36.2255 35.6141 36.2956 35.6996C36.5434 36.0014 36.8265 36.3864 37.145 36.8547C37.4156 37.2523 37.7605 37.6287 38.0513 38.0371C38.2665 38.339 38.4537 38.5879 38.613 38.7836C38.846 39.07 39.0701 39.3611 39.2853 39.6569C39.2894 39.6625 39.2921 39.669 39.2931 39.6759C39.2942 39.6827 39.2936 39.6898 39.2913 39.6963C39.2891 39.7029 39.2853 39.7088 39.2803 39.7136C39.2753 39.7184 39.2692 39.7219 39.2626 39.7239C38.47 39.9551 37.526 40.1559 36.8757 40.3307C36.0872 40.5428 35.3037 40.7647 34.5252 40.9964C34.5091 41.0013 34.492 41.0012 34.476 40.9962C34.4599 40.9911 34.4457 40.9814 34.4351 40.9682C33.7183 40.0657 33.0056 39.1603 32.2971 38.2521C31.9134 37.7599 31.5096 37.3487 31.0856 37.0184C30.6645 36.6897 30.1538 36.4433 29.5907 36.2058C29.3711 36.113 29.1626 36.0429 28.9651 35.9954C28.0092 35.7655 27.0379 35.6763 26.0515 35.7281C26.0303 35.7294 26.0111 35.7357 25.9939 35.7468C25.4702 36.086 24.8622 36.3815 24.1698 36.6333C22.6462 37.1866 21.1294 37.2572 19.6192 36.8449C18.4583 36.5275 17.4179 35.9129 16.5332 35.1064C15.7021 34.3483 15.1121 33.3797 14.7443 32.321C14.7378 32.3016 14.7248 32.2891 14.7053 32.2836C14.6232 32.2612 14.5523 32.2669 14.4926 32.3007C13.1501 33.0616 11.6783 33.478 10.1381 33.4955C8.92239 33.5092 7.82328 33.3557 6.64642 32.9351C6.40444 32.8484 6.22244 32.7705 6.10042 32.7015C6.02173 32.6579 5.9319 32.6523 5.85101 32.6126C4.15867 31.778 2.89061 30.5136 1.86949 28.9472C0.918626 27.4894 0.448976 25.7715 0.157323 24.0731C0.0833079 23.6413 0.0376006 23.2069 0.020202 22.7698C-0.0198617 21.7408 -0.0124031 20.7617 0.155264 19.7233C0.292848 18.8701 0.39868 18.2828 0.47276 17.9614C0.672005 17.0944 1.06308 16.0717 1.42679 15.1469C1.68254 14.4964 2.03024 13.8691 2.34447 13.2372C2.71472 12.4922 3.21465 11.6639 3.84428 10.7522C3.98961 10.5414 4.1777 10.2944 4.40853 10.011C4.55844 9.82702 4.75377 9.58534 4.9945 9.28593C5.3421 8.85382 5.76987 8.3678 6.27781 7.82787C6.56578 7.5218 6.86394 7.23219 7.1723 6.95903C7.79783 6.40388 8.39257 5.9161 8.9565 5.49571C9.82634 4.84768 10.7916 4.24302 11.8522 3.68173C11.8888 3.66242 12.0124 3.60459 12.2231 3.50824C12.3181 3.46499 12.4415 3.4055 12.5933 3.32976C12.7332 3.25978 13.0129 3.14165 13.4323 2.97537C14.2563 2.64899 15.2777 2.72635 15.7894 3.50307C15.9027 3.6745 16.0223 3.99219 16.1483 4.45612C17.7147 10.2098 18.903 14.6314 19.7133 17.721C19.9962 18.7997 20.18 19.4807 20.2646 19.7638C20.3858 20.1718 20.4243 20.7316 19.8651 20.7888C19.8439 20.7908 19.8225 20.7884 19.8024 20.7816C19.7823 20.7749 19.7638 20.764 19.7482 20.7496C19.3047 20.3396 18.8508 19.876 18.445 19.496C17.364 18.4854 16.3184 17.4381 15.2405 16.4247C14.7784 15.9903 14.3236 15.5483 13.8761 15.0988C13.6963 14.9181 13.4518 14.7172 13.2208 14.5018C12.596 13.9198 11.6104 14.1867 11.1769 14.8669C10.9905 15.1591 10.8925 15.4723 10.8829 15.8066C10.8774 15.9953 10.9323 16.3086 11.0475 16.7465C11.7069 19.2546 12.4157 21.7598 13.0534 24.2614C13.2353 24.9767 13.2867 25.8235 12.9652 26.5007C12.8305 26.785 12.6504 27.0217 12.4249 27.2109C12.0761 27.5031 11.728 27.7078 11.3805 27.825C9.68953 28.3961 7.92723 28.1375 6.47231 27.1272C5.18997 26.2367 4.36399 24.9738 3.97883 23.4564C3.36855 21.0548 3.81181 18.6747 4.75177 16.4089C4.79476 16.3059 4.84799 16.1704 4.91144 16.0023C5.00084 15.7656 5.19337 15.3991 5.48903 14.9029C5.52616 14.8407 5.57625 14.741 5.63932 14.6037C5.67664 14.5229 5.72698 14.4224 5.79033 14.3023C6.32085 13.2971 6.84025 12.4314 7.53586 11.5591C7.88644 11.1188 8.19602 10.7504 8.46461 10.4539C8.5539 10.3553 8.61783 10.2751 8.65637 10.2134C8.6669 10.1968 8.68347 10.1847 8.70279 10.1796C8.73758 10.1698 8.77261 10.1448 8.8079 10.1047C9.16058 9.6997 9.6011 9.28963 10.1295 8.87448C10.1427 8.86446 10.1866 8.82526 10.2612 8.75688C10.3056 8.71692 10.3538 8.68259 10.4059 8.65392C10.5127 8.59501 10.5868 8.55004 10.6284 8.51902C10.7436 8.43368 10.9053 8.32745 11.1133 8.20033C11.5131 7.95564 11.8921 7.74891 12.2502 7.58013C12.9065 7.27038 13.7012 7.07608 14.4423 6.87618C15.0046 6.72432 15.426 6.14122 15.257 5.57583C15.0593 4.91525 14.3453 4.60512 13.682 4.66893C13.2998 4.7057 12.8965 4.79216 12.472 4.9283C12.0298 5.0705 11.6122 5.23412 11.2193 5.41915C10.4151 5.79781 9.56272 6.30267 8.80565 6.84337C8.58828 6.99845 8.35015 7.18608 8.09126 7.40625C7.7438 7.702 7.51735 7.90438 7.41191 8.01341C7.17143 8.26227 6.98866 8.44472 6.8636 8.56074C6.78981 8.6289 6.72348 8.70087 6.66462 8.77666C6.60149 8.85899 6.46807 8.97511 6.43331 9.06469C6.40859 9.12828 6.42491 9.15237 6.48226 9.13694C6.33598 9.33934 6.22022 9.49018 6.13496 9.58946C5.37807 10.4737 4.71445 11.4127 4.14411 12.4064C4.04337 12.4413 3.96645 12.5243 3.91335 12.6555C3.8625 12.7822 3.81964 12.872 3.78477 12.9249C3.59654 13.2085 3.43079 13.5046 3.2875 13.8131C3.14439 14.1208 3.07187 14.2766 3.06992 14.2806C2.93217 14.5648 2.79792 14.8509 2.66718 15.1389C2.62452 15.2319 2.56623 15.3806 2.4923 15.5851C2.43762 15.7361 2.37519 15.8839 2.30499 16.0283C2.23898 16.1642 2.18623 16.3039 2.14673 16.4474C2.10572 16.5965 2.05787 16.7433 2.00319 16.8879C1.99932 16.8975 1.99793 16.9076 1.99901 16.9181C2.00028 16.9277 2.00109 16.9372 2.00145 16.9466C2.00271 16.9674 1.99794 16.9866 1.98716 17.0041C1.92894 17.1 1.94215 17.2123 1.9191 17.2974C1.83825 17.5935 1.73788 17.8696 1.68508 18.1718C1.62248 18.529 1.51333 18.8858 1.49539 19.2484C1.48818 19.3888 1.47549 19.5152 1.45733 19.6275C1.3879 20.0581 1.34964 20.4823 1.34254 20.9001C1.33669 21.2244 1.34735 21.641 1.37452 22.1501C1.42377 23.0751 1.56245 24.0091 1.79058 24.952C1.83649 25.1433 1.88808 25.3156 1.94534 25.4688C2.09104 25.86 2.19411 26.1687 2.30856 26.5249C2.56433 27.3202 2.94321 28.0485 3.4452 28.7099C3.71052 29.0596 4.05592 29.4371 4.48141 29.8425C4.70444 30.0548 4.95861 30.2565 5.24394 30.4476C5.68318 30.7419 6.00711 30.9441 6.21573 31.0541C7.10562 31.5244 8.04352 31.8155 9.02943 31.9275C9.42753 31.9727 9.84143 31.9749 10.2711 31.9339C11.0947 31.8548 11.8419 31.6783 12.5129 31.4043C12.8171 31.2798 13.1855 31.0651 13.6183 30.7602C13.7167 30.691 13.8093 30.6079 13.896 30.5108C13.9789 30.4173 14.0621 30.324 14.1456 30.2308C14.295 30.0642 14.413 29.918 14.4998 29.792C14.9977 29.0705 15.3935 28.1281 15.4806 27.2492C15.5068 26.9837 15.5349 26.7185 15.5647 26.4533C15.6458 25.7301 15.6123 25.012 15.464 24.2991C15.33 23.6553 15.1199 22.822 14.834 21.7993C14.5368 20.736 14.2375 19.6733 13.9363 18.6112C13.9149 18.5358 13.9034 18.4655 13.9019 18.4004C13.9018 18.3939 13.9035 18.3874 13.9069 18.3819C13.9104 18.3764 13.9153 18.372 13.9213 18.3692C13.9272 18.3664 13.9339 18.3655 13.9404 18.3664C13.947 18.3673 13.9531 18.37 13.9582 18.3743C14.6898 19.0101 15.3826 19.6672 16.0365 20.3455C16.1981 20.5126 16.4137 20.7205 16.6835 20.9694C16.9288 21.1959 17.1472 21.4014 17.3388 21.5858C17.8822 22.1092 18.38 22.5659 18.8324 22.9559C19.3741 23.4224 19.9601 23.2603 20.5351 22.931C21.1506 22.5782 21.6329 22.1315 21.982 21.5907C22.1961 21.2592 22.3462 20.894 22.4323 20.4951C22.6189 19.6315 22.4242 18.8466 22.1884 17.9614C21.2985 14.6253 20.4031 11.291 19.5021 7.95834C19.4326 7.70136 19.3272 7.29854 19.1859 6.74986C19.0079 6.05918 18.7756 5.19395 18.4889 4.15416C18.338 3.6059 18.1488 3.07117 17.7561 2.67723C17.3474 2.26729 16.8398 2.02762 16.2332 1.95821C16.1654 1.95056 16.1381 1.96199 16.1514 1.99249C15.9136 2.01117 15.7735 1.96234 15.7313 1.846C16.3397 1.57283 16.9781 1.36966 17.6467 1.23647C17.8622 1.19362 18.0576 1.18552 18.2328 1.21218C18.7967 1.29802 19.4237 1.62508 19.6777 2.14886C19.7268 2.25042 19.7811 2.41138 19.8408 2.63173C20.0939 3.57009 20.3463 4.50867 20.5978 5.44746C21.7626 9.79883 22.9308 14.1491 24.1024 18.4982C24.2514 19.0513 24.3369 19.4584 24.3589 19.7195C24.3859 20.038 24.3792 20.356 24.3389 20.6735C24.2985 20.9954 24.2118 21.298 24.079 21.5814C23.7276 22.3294 23.1868 22.8846 22.4565 23.2471C21.6021 23.671 20.9756 23.9926 20.5772 24.2119C20.5177 24.2447 20.4176 24.3143 20.2771 24.4207C20.1434 24.5213 19.9829 24.5917 19.8609 24.6782C19.5763 24.8807 19.2913 25.0829 19.006 25.2847C18.9333 25.3361 18.8451 25.4185 18.7412 25.5319C18.6506 25.6304 18.5483 25.7166 18.4343 25.7904C18.4179 25.8013 18.4047 25.8154 18.3947 25.8328C18.3822 25.8551 18.3601 25.8787 18.3285 25.9036C18.0468 26.1269 17.8284 26.3981 17.6733 26.7172ZM10.2683 10.3701C8.3966 12.0659 7.05087 14.0992 5.98841 16.3941C5.42543 17.6101 5.06711 18.8747 4.91347 20.1877C4.91117 20.1646 4.90105 20.1501 4.88312 20.1441C4.87814 20.1423 4.87283 20.1417 4.86756 20.1422C4.8623 20.1428 4.85723 20.1445 4.85271 20.1473C4.8482 20.15 4.84436 20.1538 4.84147 20.1582C4.83858 20.1627 4.83672 20.1677 4.83602 20.173C4.72815 21.0022 4.78747 21.8104 5.01399 22.5976C5.13561 23.0209 5.28609 23.409 5.46545 23.762C5.93132 24.6776 6.6414 25.3656 7.59568 25.826C7.91787 25.9814 8.20552 26.1007 8.45861 26.1841C9.19187 26.4252 9.93052 26.4563 10.6746 26.2774C11.3005 26.1272 11.7641 25.8298 12.0856 25.2904C12.1698 25.1487 12.2097 25.0074 12.2052 24.8667C12.1854 24.2851 11.6281 23.9031 11.0877 23.8763C10.7877 23.8612 10.3966 23.9903 10.0773 24.0742C9.78441 24.151 9.55691 24.1708 9.2851 24.1067C8.5023 23.9231 7.94458 23.4499 7.5494 22.7402C6.99845 21.7515 7.03951 20.6591 7.31961 19.5951C7.65003 18.3372 8.1359 17.1438 8.7772 16.015C8.98637 15.6473 9.19918 15.2892 9.41563 14.9406C10.0947 13.8469 10.8986 12.8741 11.8275 12.0221C12.2325 11.6505 12.6879 11.3395 13.1936 11.0892C13.4424 10.9663 13.7804 10.8452 14.2076 10.726C14.6769 10.595 15.1459 10.4631 15.6147 10.3302C15.9143 10.2451 16.0163 10.1413 16.1545 9.88152C16.3184 9.57432 16.3461 9.28214 16.2377 9.005C15.9845 8.35612 15.1022 8.12101 14.4649 8.22637C13.9647 8.30911 13.4585 8.44112 12.9464 8.6224C12.5604 8.75941 12.1853 8.93555 11.8211 9.15082C11.2292 9.50023 10.6715 9.90167 10.1483 10.3551C10.1452 10.3579 10.143 10.3614 10.1418 10.3654C10.1407 10.3693 10.1407 10.3735 10.1418 10.3775C10.1429 10.3814 10.1451 10.385 10.1482 10.3877C10.1512 10.3905 10.155 10.3923 10.159 10.393C10.1819 10.3968 10.2184 10.3891 10.2683 10.3701ZM16.5441 12.4829C16.3673 12.2668 16.1852 12.1191 15.9976 12.0397C15.7004 11.9134 15.4072 11.89 15.1181 11.9695C14.3732 12.1743 14.0025 12.9741 14.2524 13.695C14.3239 13.9014 14.4281 14.0762 14.5652 14.2192C14.8949 14.5637 15.4129 15.0548 16.1193 15.6927C16.5321 16.0651 17.1478 16.1519 17.4047 15.5393C17.4668 15.3905 17.4794 15.2485 17.4424 15.1131C17.2759 14.509 17.115 13.9037 16.9595 13.2971C16.9083 13.0991 16.8579 12.9545 16.8082 12.8635C16.7435 12.745 16.6554 12.6181 16.5441 12.4829ZM9.23729 18.6679L9.33246 18.7756C9.34797 18.7934 9.36575 18.7964 9.38579 18.7845C9.5278 18.703 9.689 18.703 9.80636 18.6113C10.0796 18.398 10.1728 17.9938 9.99121 17.7145C9.74012 17.3272 9.26952 17.2648 8.93858 17.6119C8.84594 17.7093 8.81515 17.8017 8.76009 17.9239C8.59944 18.281 8.88121 18.5876 9.22127 18.6586C9.22747 18.6599 9.23309 18.6631 9.23729 18.6679ZM10.0281 22.3833C10.3893 22.2683 10.6867 22.0032 10.855 21.6463C11.0233 21.2893 11.0486 20.8698 10.9254 20.48C10.8644 20.287 10.7687 20.1071 10.6439 19.9505C10.5191 19.794 10.3676 19.6639 10.198 19.5677C10.0284 19.4715 9.84402 19.411 9.65544 19.3897C9.46686 19.3685 9.27774 19.3868 9.0989 19.4438C8.7377 19.5588 8.44024 19.8239 8.27197 20.1808C8.10369 20.5378 8.07838 20.9573 8.2016 21.3471C8.26261 21.5401 8.35825 21.72 8.48306 21.8765C8.60787 22.0331 8.7594 22.1632 8.92901 22.2594C9.09862 22.3556 9.28297 22.4161 9.47155 22.4374C9.66013 22.4586 9.84925 22.4403 10.0281 22.3833ZM18.0049 23.5757C17.682 23.2769 17.0511 23.2181 16.8724 23.6958C16.7661 23.9785 16.8059 24.2711 16.992 24.5735C17.1572 24.8422 17.5762 25.0881 17.8775 24.8763C18.3472 24.5462 18.431 23.9691 18.0049 23.5757ZM29.0734 26.9247C28.6276 27.7024 28.2783 28.4613 28.0254 29.2014C27.7694 29.9506 27.5771 30.7865 27.4487 31.7093C27.3563 32.3754 27.1642 33.0153 27.0306 33.6717C27.0264 33.6921 27.0268 33.7132 27.0318 33.7334C27.0368 33.7536 27.0462 33.7724 27.0594 33.7885C27.0726 33.8046 27.0893 33.8175 27.1081 33.8262C27.1269 33.835 27.1474 33.8394 27.1682 33.8392C28.5125 33.822 29.3264 32.7768 29.7218 31.6112C29.8735 31.1649 30.0228 30.718 30.1698 30.2703C30.3478 29.7294 30.49 29.3381 30.5966 29.0963C31.3216 27.4526 32.5641 26.2015 34.1482 25.322C34.4304 25.165 34.7236 25.0331 35.0278 24.9263C35.7562 24.6709 36.4941 24.4464 37.2415 24.2527C37.933 24.0737 38.5754 23.9848 39.1686 23.9862C40.0242 23.9885 40.7112 24.2095 41.5907 24.4822C41.751 24.5319 41.9119 24.5194 42.0734 24.445C42.4368 24.2774 42.5833 23.8723 42.4957 23.4934C42.4568 23.3253 42.3591 23.1467 42.2024 22.9576C41.7146 22.3672 41.0471 22.0575 40.3302 21.8187C40.2655 21.7973 40.1783 21.7795 40.0683 21.7655C39.9788 21.7538 39.891 21.7356 39.8049 21.7108C39.7129 21.6838 39.6207 21.6717 39.5282 21.6746C39.4241 21.6775 39.3209 21.6725 39.2186 21.6595C39.093 21.6432 38.9902 21.6372 38.91 21.6415C38.5362 21.6614 38.1627 21.6865 37.7895 21.717C37.686 21.7254 37.5762 21.7398 37.46 21.7603C37.1828 21.8089 36.9076 21.848 36.6413 21.9157C36.1288 22.0458 35.6162 22.1754 35.1035 22.3046C34.8872 22.3589 34.6651 22.4471 34.4426 22.5147C33.6356 22.7621 32.8478 23.1927 32.1484 23.6596C31.8025 23.8902 31.4759 24.1465 31.1686 24.4285C30.8537 24.7176 30.507 25.0643 30.1283 25.4685C29.7483 25.8744 29.3967 26.3598 29.0734 26.9247ZM22.8889 28.3765C22.9784 28.3928 23.0704 28.3904 23.1596 28.3692C23.2488 28.3481 23.3336 28.3088 23.409 28.2535C23.4843 28.1981 23.5489 28.1279 23.599 28.0468C23.6491 27.9657 23.6836 27.8752 23.7008 27.7807C23.7353 27.5897 23.6967 27.3934 23.5934 27.2351C23.49 27.0767 23.3305 26.9692 23.1497 26.9363C23.0603 26.9199 22.9683 26.9224 22.879 26.9435C22.7898 26.9646 22.7051 27.004 22.6297 27.0593C22.5543 27.1146 22.4897 27.1849 22.4397 27.266C22.3896 27.3471 22.355 27.4375 22.3379 27.5321C22.3033 27.7231 22.3419 27.9194 22.4453 28.0777C22.5486 28.2361 22.7082 28.3435 22.8889 28.3765ZM20.0812 29.3815C19.8203 29.6587 19.6898 29.969 19.6895 30.3125C19.6894 30.6261 19.748 30.8908 19.8653 31.1064C20.0597 31.4622 20.3353 31.7155 20.6924 31.8663C20.9961 31.9943 21.2951 32.0267 21.5895 31.9635C21.922 31.8918 22.1846 31.7057 22.3774 31.4054C22.5908 31.0728 22.6833 30.7095 22.6551 30.3155C22.5977 29.5065 21.9626 28.915 21.1597 28.8805C20.9404 28.8709 20.7442 28.9111 20.571 29.0013C20.3974 29.092 20.2342 29.2187 20.0812 29.3815ZM40 25.4412C38.6176 25.3833 37.149 25.7005 35.8371 26.0759C35.6223 26.1376 35.3853 26.2194 35.1263 26.3214C34.8929 26.4135 34.6597 26.5058 34.4264 26.5982C34.1504 26.7074 33.7842 26.925 33.3278 27.2508C32.9747 27.5028 32.6721 27.8025 32.4201 28.1498C32.3314 28.2715 32.2355 28.4332 32.1324 28.6348C31.9117 29.0662 31.6525 29.5591 31.8656 30.0188C32.0284 30.3704 32.4134 30.571 32.7877 30.4128C33.1628 30.255 33.5353 29.8824 33.8693 29.5635C34.0545 29.3864 34.3892 29.1789 34.8733 28.9409C34.9532 28.9019 35.0217 28.835 35.1002 28.8054C36.0095 28.463 36.9376 28.1893 37.8845 27.9843C38.4473 27.8623 38.8557 27.7885 39.1098 27.7629C39.987 27.6737 40.8369 27.8155 41.6595 28.1883C42.0095 28.3466 42.2473 28.4476 42.373 28.4915C42.6905 28.602 42.9495 28.5129 43.1502 28.2243C43.7482 27.3633 42.7019 26.3641 42.0015 25.9772C41.4119 25.6512 40.7448 25.4726 40 25.4412ZM41.5094 29.7927C41.0536 29.382 40.5447 29.2756 39.9548 29.1767C39.4013 29.0841 38.9035 29.1203 38.3716 29.2387C37.4253 29.4498 36.4588 29.6942 35.5653 30.0762C35.099 30.2749 34.8243 30.3945 34.7409 30.435C34.1832 30.7053 32.9994 31.5413 33.3654 32.33C33.4513 32.5149 33.5717 32.6712 33.7266 32.7991C33.7421 32.8118 33.7599 32.8189 33.78 32.8203C33.8135 32.8234 33.8445 32.8358 33.8731 32.8574C34.4855 33.3204 35.3666 33.5196 36.1137 33.5937C36.4016 33.622 36.722 33.6204 37.0751 33.5889C37.8739 33.5184 38.5415 33.3259 39.3269 33.041C39.7418 32.8902 40.0824 32.7287 40.3485 32.5566C40.9507 32.1676 41.5057 31.7155 41.7843 31.0272C41.9796 30.545 41.888 30.1335 41.5094 29.7927ZM36.5642 38.4202C36.2202 37.9868 35.8901 37.5426 35.5739 37.0875C35.4229 36.8699 35.2284 36.6919 35.0754 36.469C34.5536 35.7095 34.1355 35.1627 33.8211 34.8288C33.1142 34.0794 31.5647 32.7198 30.4643 33.5611C30.2369 33.7349 29.9739 33.9961 29.6753 34.3447C29.6403 34.3856 29.6218 34.4227 29.6199 34.456C29.6174 34.514 29.6504 34.5509 29.7191 34.5665C30.1035 34.6538 30.4781 34.7817 30.8429 34.9502C31.2038 35.1168 31.5361 35.327 31.8399 35.5809C32.1814 35.8666 32.5204 36.2105 32.8569 36.6126C33.5648 37.4593 34.2444 38.3246 34.8957 39.2085C34.9108 39.2289 34.9317 39.2443 34.9555 39.2526C34.9794 39.261 35.0051 39.262 35.0295 39.2554L36.6522 38.8223C36.6704 38.8174 36.6872 38.8082 36.7011 38.7955C36.715 38.7827 36.7256 38.7668 36.732 38.7491C36.7818 38.6121 36.6429 38.5194 36.5642 38.4202Z" fill="#C7D2DA"/>
  <path d="M38.2695 6.12234C38.3529 5.98797 38.4674 5.85883 38.5303 5.72738C38.6865 5.39938 38.7143 5.05586 38.6137 4.69682C38.6118 4.68989 38.6117 4.68258 38.6133 4.6756C38.615 4.66861 38.6184 4.66218 38.6232 4.65688C38.6279 4.65159 38.6339 4.64762 38.6406 4.64534C38.6473 4.64307 38.6545 4.64256 38.6614 4.64386C38.8754 4.68381 39.0846 4.74123 39.289 4.81611C40.1529 5.13189 40.6985 5.77462 40.8242 6.72115C40.8332 6.78862 40.8221 6.85026 40.791 6.90607C40.7805 6.92445 40.7648 6.93557 40.7439 6.93946C39.8438 7.09738 39.0496 7.47486 38.3613 8.07191C38.2497 8.16921 37.9915 8.42995 37.5868 8.85413C37.4839 8.96139 37.4571 9.05402 37.3963 9.13313C37.3027 9.25342 37.2022 9.34321 37.1226 9.47009C36.8237 9.94605 36.5273 10.4235 36.2335 10.9024C36.1727 11.0009 36.1548 11.1319 36.0581 11.231C36.0443 11.2451 36.035 11.2618 36.0303 11.2812C36.0089 11.3702 35.9859 11.4275 35.9614 11.4531C35.8856 11.533 35.81 11.6547 35.7346 11.8182C35.6734 11.9516 35.5451 12.1632 35.3495 12.453C35.2736 12.5662 35.2047 12.6906 35.1429 12.8263C34.9153 13.3262 34.565 13.9801 34.7368 14.5292C34.8984 15.0475 35.4363 15.3111 35.9553 15.1735C36.1533 15.1211 36.335 15.0211 36.5007 14.8735C36.6064 14.7799 36.7319 14.6196 36.8771 14.3924C37.2479 13.8122 37.6121 13.2283 37.9698 12.6407C38.5384 11.7066 38.9697 11.0365 39.2637 10.6305C39.5599 10.2217 39.9483 9.87804 40.4289 9.59954C40.5343 9.53884 40.6819 9.4804 40.8715 9.42424C41.0367 9.37505 41.1863 9.31779 41.3202 9.25246C41.8768 8.98158 42.1002 8.53778 41.9906 7.92104C41.9859 7.89555 41.9965 7.88213 42.0224 7.88078C42.4275 7.85984 42.7815 8.22926 43.0339 8.49851C43.1893 8.66337 43.3152 8.8491 43.4116 9.05569C43.5483 9.34852 43.6396 9.64622 43.6855 9.94877C43.719 10.1693 43.6973 10.3895 43.6202 10.6095C43.5814 10.7205 43.5195 10.8033 43.4344 10.8581C43.3507 10.9117 43.2581 10.9498 43.1567 10.9723C43.1473 10.9744 43.1377 10.9745 43.1283 10.9725C43.119 10.9706 43.1103 10.9666 43.1027 10.9609C42.3476 10.4159 41.5686 10.3705 40.7656 10.8245C40.4067 11.0276 40.1663 11.3306 40.0444 11.7335C39.9758 11.9598 39.9757 12.1559 40.0441 12.3217C40.2167 12.7387 40.6425 12.7807 41.088 12.7878C41.3021 12.791 41.4832 12.8075 41.6312 12.8371C42.0019 12.9115 42.3239 12.9828 42.6675 13.1706C42.9382 13.3183 43.2076 13.4678 43.4759 13.6191C43.8666 13.8389 44.1276 13.9395 44.5075 13.6963C44.9122 13.4367 44.9134 12.8184 44.7988 12.4131C44.7924 12.3911 44.8 12.3841 44.8215 12.3921C45.1137 12.5012 45.5578 13.2515 45.7052 13.5257C45.8999 13.8881 45.9982 14.3334 46.1187 14.7461C46.2255 15.1122 46.2736 15.4855 46.2631 15.8663C46.2549 16.1642 46.0236 16.911 45.6356 16.849C45.6154 16.8458 45.5996 16.8356 45.5881 16.8184C45.1573 16.1837 44.672 15.6968 44.1323 15.3579C43.887 15.2039 43.6417 15.0501 43.3965 14.8964C43.2128 14.7815 43.0204 14.6863 42.8193 14.611C42.6138 14.5338 42.4078 14.4569 42.2013 14.3805C41.5941 14.1559 40.967 14.0549 40.3201 14.0775C39.7412 14.0973 39.1321 14.2125 38.4928 14.4232C38.4339 14.4425 38.3706 14.4759 38.3029 14.5235C38.2226 14.58 38.1279 14.6262 38.0561 14.6785C37.7007 14.9397 37.4919 15.2724 37.4295 15.6765C37.3798 15.9999 37.5864 16.2931 37.8684 16.4508C38.1524 16.6096 38.4578 16.6547 38.7847 16.5862C38.8758 16.5669 38.9583 16.557 39.0321 16.5566C39.1382 16.5561 39.2194 16.5494 39.2756 16.5364C40.0125 16.3693 40.6812 16.4561 41.4336 16.6589C41.8088 16.7599 42.1309 16.8874 42.3998 17.0416C42.5741 17.1419 42.8528 17.3309 43.2361 17.6088C43.8516 18.0547 44.3591 18.5233 44.8566 19.0657C45.1013 19.3325 45.4441 19.6648 45.8246 19.6046C46.3634 19.5192 46.3967 19.1078 46.4706 18.6576C46.4869 18.5592 46.5167 18.5548 46.56 18.6446C46.8775 19.3027 47.1213 20.2906 46.9356 21.0245C46.8804 21.2429 46.794 21.4506 46.6763 21.6474C46.5475 21.8637 46.3671 22.005 46.135 22.0713C45.954 22.1225 45.7367 22.0671 45.5418 22.0496C45.5206 22.0475 45.5036 22.0378 45.4909 22.0206C45.4002 21.8961 45.365 21.716 45.3102 21.6071C44.8544 20.697 44.3271 20.1011 43.552 19.3887C42.7133 18.6173 41.7384 18.1109 40.6272 17.8696C40.6236 17.8689 40.6099 17.8637 40.5863 17.8541C40.5718 17.8481 40.5574 17.8481 40.5431 17.8541C40.5238 17.8623 40.5043 17.8632 40.4845 17.8569C40.2929 17.7962 40.0987 17.7697 39.9017 17.7774C39.7829 17.7817 39.6805 17.7823 39.5946 17.7791C39.4913 17.7754 39.3883 17.7785 39.2856 17.7884C39.1339 17.8029 38.9959 17.8109 38.8716 17.8124C38.6844 17.8142 38.4909 17.85 38.3179 17.8422C37.9035 17.8229 37.5002 17.7526 37.108 17.6311C36.8517 17.5516 36.5451 17.4089 36.1883 17.2029C35.4168 16.7572 34.656 16.2931 33.906 15.8106C33.7067 15.6824 33.4722 15.5914 33.2695 15.4551C33.0562 15.3118 32.8236 15.1955 32.5715 15.1063C32.5655 15.1042 32.56 15.1008 32.5554 15.0963C32.5509 15.0918 32.5474 15.0863 32.5453 15.0802C32.5432 15.0741 32.5425 15.0676 32.5432 15.0612C32.5439 15.0547 32.546 15.0485 32.5494 15.043C33.2998 13.8201 34.0354 12.5844 34.7565 11.3358C34.7849 11.2874 34.8434 11.2458 34.8723 11.1972C35.4271 10.2642 35.9659 9.32213 36.4887 8.37097C36.6339 8.10674 36.8629 7.78438 37.1757 7.4039C37.4579 7.06013 37.752 6.72718 38.0581 6.40504C38.1284 6.33047 38.1989 6.23623 38.2695 6.12234Z" fill="#C7D2DA"/>
  <path d="M23.4368 25.2756C23.418 25.3397 23.3639 25.3792 23.2744 25.3941C23.295 25.3448 23.3491 25.3052 23.4368 25.2756Z" fill="#18364A"/>
</svg>